# xmcd CD database file
#
# Track frame offsets:
#	150
#	18025
#	39783
#	58038
#	75890
#	97584
#	116003
#
# Disc length: 1673 seconds
#
# Revision: 5
# Processed by: cddbd v1.5.2PL0 Copyright (c) Steve Scherf et al.
# Submitted via: CDex 1.70beta3
#
DISCID=39068707
DTITLE=佐久間まゆ (牧野由依), 北条加蓮 (渕上舞), 小日向美穂 (津田美波), 多田李衣菜 (青木瑠璃子), 緒方智絵里 (大空直美) - THE IDOLM@STER CINDERELLA GIRLS STARLIGHT MASTER 06
DYEAR=2016
DGENRE=Game
TTITLE0=Love∞Destiny (M@STER VERSION)
TTITLE1=高森藍子 (金子有希) - 青空リレーション
TTITLE2=星輝子 (松田颯水) - PANDEMIC ALONE
TTITLE3=Love∞Destiny (M@STER VERSION) (オリジナル・カラオケ)
TTITLE4=高森藍子 (金子有希) - 青空リレーション (オリジナル・カラオケ)
TTITLE5=星輝子 (松田颯水) - PANDEMIC ALONE (オリジナル・カラオケ)
TTITLE6=Love∞Destiny (GAME VERSION)
EXTD=YEAR: 2016
EXTT0=
EXTT1=
EXTT2=
EXTT3=
EXTT4=
EXTT5=
EXTT6=
PLAYORDER=
